<svg width="1280" height="420" viewBox="0 0 1280 420" fill="none" xmlns="http://www.w3.org/2000/svg" role="img" aria-labelledby="title description">
  <title id="title">Cong Nguyen Thanh</title>
  <desc id="description">Senior Full-Stack Engineer and Technical Advisor working across product engineering, AI systems, cloud infrastructure, mobile, and robotics.</desc>
  <style>
    .bg { fill: #f6f8fa; }
    .ink { fill: #20272f; }
    .muted { fill: #57606a; }
    .accent { fill: #2f6f7e; }
    .line { stroke: #d0d7de; }
    .node { fill: #ffffff; stroke: #2f6f7e; }
    .mono { font-family: ui-monospace, SFMono-Regular, Menlo, Consolas, monospace; }
    .sans { font-family: -apple-system, BlinkMacSystemFont, "Segoe UI", sans-serif; }
    @media (prefers-color-scheme: dark) {
      .bg { fill: #0d1117; }
      .ink { fill: #f0f6fc; }
      .muted { fill: #8b949e; }
      .accent { fill: #58a6b7; }
      .line { stroke: #30363d; }
      .node { fill: #161b22; stroke: #58a6b7; }
    }
  </style>
  <rect class="bg" width="1280" height="420" rx="6" />
  <path class="line" d="M0 84H1280M0 336H1280" />
  <rect class="accent" x="72" y="76" width="64" height="4" />
  <text class="muted mono" x="72" y="55" font-size="15" letter-spacing="1.8">ENGINEERING PROFILE / HO CHI MINH CITY</text>
  <text class="ink sans" x="72" y="164" font-size="54" font-weight="700">Cong Nguyen Thanh</text>
  <text class="accent sans" x="74" y="211" font-size="25" font-weight="600">Senior Full-Stack Engineer · Technical Advisor</text>
  <text class="muted sans" x="74" y="260" font-size="19">Product systems · AI engineering · Cloud platforms · Mobile &amp; native · Robotics</text>
  <text class="ink mono" x="74" y="312" font-size="15">ARCHITECT  /  BUILD  /  SHIP  /  IMPROVE</text>

  <g opacity="0.94">
    <path class="line" stroke-width="2" d="M925 118L1030 85L1141 145L1098 252L976 286L887 218L925 118Z" />
    <path class="line" stroke-width="2" d="M925 118L976 286M1030 85L1098 252M887 218L1141 145M925 118L1098 252M1030 85L887 218" />
    <circle class="node" cx="925" cy="118" r="12" stroke-width="3" />
    <circle class="node" cx="1030" cy="85" r="12" stroke-width="3" />
    <circle class="node" cx="1141" cy="145" r="12" stroke-width="3" />
    <circle class="node" cx="1098" cy="252" r="12" stroke-width="3" />
    <circle class="node" cx="976" cy="286" r="12" stroke-width="3" />
    <circle class="node" cx="887" cy="218" r="12" stroke-width="3" />
    <circle class="accent" cx="1011" cy="186" r="20" />
    <text x="1002" y="192" fill="#ffffff" class="mono" font-size="15" font-weight="700">C</text>
  </g>

  <text class="muted mono" x="72" y="382" font-size="14">10+ YEARS ACROSS SOFTWARE PRODUCTS, PLATFORMS, AND TECHNICAL LEADERSHIP</text>
  <text class="muted mono" x="1136" y="382" text-anchor="end" font-size="14">github.com/cong91</text>
</svg>
