<svg width="1280" height="640" viewBox="0 0 1280 640" fill="none" xmlns="http://www.w3.org/2000/svg" role="img" aria-labelledby="title desc">
  <title id="title">Project cover strip</title>
  <desc id="desc">Four technical project covers for Agent Smart Memo, Cursor Starter Kit, OpenClaw OpenCode Bridge, and Hermes Wiki Automation.</desc>
  <defs>
    <linearGradient id="a" x1="0" y1="0" x2="304" y2="304" gradientUnits="userSpaceOnUse"><stop stop-color="#1C292C"/><stop offset="1" stop-color="#0F1518"/></linearGradient>
    <linearGradient id="b" x1="328" y1="0" x2="632" y2="304" gradientUnits="userSpaceOnUse"><stop stop-color="#1D2433"/><stop offset="1" stop-color="#10141D"/></linearGradient>
    <linearGradient id="c" x1="656" y1="0" x2="960" y2="304" gradientUnits="userSpaceOnUse"><stop stop-color="#292019"/><stop offset="1" stop-color="#17120E"/></linearGradient>
    <linearGradient id="d" x1="984" y1="0" x2="1280" y2="304" gradientUnits="userSpaceOnUse"><stop stop-color="#232229"/><stop offset="1" stop-color="#121217"/></linearGradient>
    <pattern id="dots" width="16" height="16" patternUnits="userSpaceOnUse"><circle cx="2" cy="2" r="1" fill="#fff" fill-opacity=".1"/></pattern>
  </defs>
  <g font-family="-apple-system, BlinkMacSystemFont, 'Segoe UI', sans-serif">
    <rect width="304" height="304" rx="16" fill="url(#a)"/>
    <rect width="304" height="304" rx="16" fill="url(#dots)"/>
    <text x="28" y="45" fill="#9DE6CD" font-family="ui-monospace, monospace" font-size="11" letter-spacing="1.7">01 / MEMORY</text>
    <path d="M52 198C52 150 91 111 139 111H166C214 111 253 150 253 198V211H52V198Z" stroke="#72D6B2" stroke-width="2"/>
    <path d="M76 190C76 157 102 131 135 131H170C203 131 230 157 230 190" stroke="#72D6B2" stroke-opacity=".4" stroke-width="2" stroke-dasharray="5 7"/>
    <circle cx="151" cy="185" r="30" fill="#72D6B2" fill-opacity=".13" stroke="#72D6B2"/>
    <path d="M138 185H164M151 172V198" stroke="#D8FFF1" stroke-width="3" stroke-linecap="round"/>
    <text x="28" y="262" fill="#F5FBF8" font-size="20" font-weight="700">Agent Smart Memo</text>
    <text x="28" y="283" fill="#9DA7A6" font-size="13">A memory layer for coding agents</text>

    <rect x="328" width="304" height="304" rx="16" fill="url(#b)"/>
    <rect x="328" width="304" height="304" rx="16" fill="url(#dots)"/>
    <text x="356" y="45" fill="#AFC4FF" font-family="ui-monospace, monospace" font-size="11" letter-spacing="1.7">02 / WORKFLOW</text>
    <rect x="372" y="103" width="215" height="109" rx="10" fill="#0D1220" stroke="#788DCA" stroke-opacity=".6"/>
    <path d="M393 133H481M393 153H536M393 173H459" stroke="#BFCDFB" stroke-opacity=".75" stroke-width="5" stroke-linecap="round"/>
    <rect x="527" y="122" width="36" height="36" rx="8" fill="#7891E5" fill-opacity=".2" stroke="#AFC4FF"/>
    <path d="M538 140L546 148L555 132" stroke="#DCE6FF" stroke-width="2" stroke-linecap="round" stroke-linejoin="round"/>
    <text x="356" y="262" fill="#F5F7FF" font-size="20" font-weight="700">Cursor Starter Kit</text>
    <text x="356" y="283" fill="#A9AFBF" font-size="13">AI coding environment, one command</text>

    <rect x="656" width="304" height="304" rx="16" fill="url(#c)"/>
    <rect x="656" width="304" height="304" rx="16" fill="url(#dots)"/>
    <text x="684" y="45" fill="#F2BC78" font-family="ui-monospace, monospace" font-size="11" letter-spacing="1.7">03 / RUNTIME</text>
    <path d="M712 179H751L772 134H829L850 179H906" stroke="#F2BC78" stroke-width="2"/>
    <circle cx="704" cy="179" r="9" fill="#2D2116" stroke="#F2BC78" stroke-width="2"/>
    <circle cx="772" cy="134" r="9" fill="#2D2116" stroke="#F2BC78" stroke-width="2"/>
    <circle cx="850" cy="179" r="9" fill="#2D2116" stroke="#F2BC78" stroke-width="2"/>
    <circle cx="914" cy="179" r="9" fill="#2D2116" stroke="#F2BC78" stroke-width="2"/>
    <path d="M770 216H848" stroke="#F2BC78" stroke-opacity=".45" stroke-width="2" stroke-dasharray="4 7"/>
    <text x="684" y="262" fill="#FFF8EF" font-size="20" font-weight="700">OpenClaw Bridge</text>
    <text x="684" y="283" fill="#B8A79A" font-size="13">Cross-runtime orchestration</text>

    <rect x="984" width="296" height="304" rx="16" fill="url(#d)"/>
    <rect x="984" width="296" height="304" rx="16" fill="url(#dots)"/>
    <text x="1012" y="45" fill="#D6B5FF" font-family="ui-monospace, monospace" font-size="11" letter-spacing="1.7">04 / KNOWLEDGE</text>
    <path d="M1037 108H1210V209H1037V108Z" fill="#13121A" stroke="#A88DCC" stroke-opacity=".7"/>
    <path d="M1060 136H1137M1060 158H1186M1060 180H1119" stroke="#D6C5EB" stroke-opacity=".7" stroke-width="5" stroke-linecap="round"/>
    <path d="M1164 127L1193 148L1164 169" stroke="#D6B5FF" stroke-width="2" stroke-linecap="round" stroke-linejoin="round"/>
    <text x="1012" y="262" fill="#FBF7FF" font-size="20" font-weight="700">Hermes Wiki</text>
    <text x="1012" y="283" fill="#B8AFBF" font-size="13">Durable-answer automation</text>
  </g>
</svg>
